REM MD5 0bdd22cd36ce2d813dcec9c79f27b430
FILE "Carnage Heart (Europe) (En,Fr,De,Es,It).bin" BINARY
  TRACK 01 MODE2/2352
    INDEX 01 00:00:00
  TRACK 02 AUDIO
    INDEX 00 07:25:07
    INDEX 01 07:27:07
  TRACK 03 AUDIO
    INDEX 00 09:42:21
    INDEX 01 09:44:21
REM LEADOUT 14:14:49
